<svg width="39" height="34" viewBox="0 0 39 34" fill="none" xmlns="http://www.w3.org/2000/svg">
<path d="M0.93131 16.0702L9.74884 19.3581L13.1862 30.4174C13.3356 31.1646 14.2323 31.3141 14.8301 30.8657L19.7619 26.8306C20.2102 26.3822 20.9575 26.3822 21.5553 26.8306L30.3728 33.2569C30.9706 33.7052 31.8673 33.4063 32.0167 32.6591L38.5925 1.27479C38.7419 0.527542 37.9947 -0.219696 37.2475 0.0792018L0.93131 14.1274C0.0346155 14.4263 0.0346155 15.7713 0.93131 16.0702ZM12.7378 17.7142L30.0739 7.1033C30.3728 6.95385 30.6717 7.40221 30.3728 7.55166L16.1751 20.8526C15.7268 21.301 15.2784 21.8988 15.2784 22.646L14.8301 26.2328C14.8301 26.6811 14.0828 26.8306 13.9334 26.2328L12.14 19.657C11.6916 18.9098 11.9906 18.0131 12.7378 17.7142Z" fill="white"/>
</svg>
