<svg width="41" height="24" viewBox="0 0 41 24" fill="none" xmlns="http://www.w3.org/2000/svg">
<path d="M40.5695 20.8682C40.5695 20.709 40.4103 20.709 40.4103 20.5497C39.7734 19.2761 38.3406 17.684 36.43 15.9327C35.4748 15.1367 34.9972 14.4998 34.6787 14.1814C34.2011 13.5446 34.2011 13.067 34.3604 12.4301C34.5196 11.9525 35.1564 11.1564 36.2708 9.72355C36.9077 8.92751 37.2261 8.4499 37.7037 7.97227C40.0918 4.7881 41.2063 2.71837 40.8879 1.76312L40.7287 1.60393C40.5695 1.44472 40.4102 1.28552 40.0918 1.28552C39.7734 1.12631 39.2958 1.12631 38.8182 1.28552H32.7683C32.6091 1.28552 32.609 1.28552 32.2906 1.28552C32.1314 1.28552 31.9722 1.28552 31.9722 1.28552H31.813H31.6538L31.4946 1.44471C31.3354 1.60392 31.3354 1.60391 31.3354 1.76312C30.6985 3.51442 29.9025 4.94729 29.1064 6.53938C28.6288 7.33542 28.1512 8.13148 27.6736 8.76832C27.1959 9.40515 26.8775 9.88277 26.5591 10.2012C26.2407 10.5196 25.9223 10.6788 25.7631 10.9972C25.6038 11.1564 25.2854 11.3157 25.2854 11.1564C25.1262 11.1564 24.967 11.1564 24.967 10.9972C24.8078 10.838 24.6486 10.6788 24.4894 10.5196C24.3302 10.3604 24.3302 10.042 24.171 9.72355C24.171 9.40514 24.171 9.08672 24.171 8.92751C24.171 8.7683 24.171 8.29069 24.171 7.97227C24.171 7.49465 24.171 7.17622 24.171 7.01701C24.171 6.53939 24.171 5.90257 24.171 5.26573C24.171 4.6289 24.171 4.15126 24.171 3.83284C24.171 3.51442 24.171 3.0368 24.171 2.71838C24.171 2.24076 24.171 1.92233 24.171 1.76312C24.171 1.60391 24.0118 1.28551 24.0118 1.1263C23.8526 0.967088 23.6933 0.807874 23.5341 0.648666C23.3749 0.489457 23.0565 0.489462 22.8973 0.330253C22.1013 0.171045 21.146 0.0118408 20.0316 0.0118408C17.4842 0.0118408 15.7329 0.171054 15.0961 0.489472C14.7777 0.64868 14.4593 0.807879 14.3001 1.1263C13.9816 1.44471 13.9816 1.60393 14.1408 1.60393C14.9369 1.76314 15.5737 2.08154 15.8921 2.55917L16.0514 2.8776C16.2106 3.03681 16.2105 3.35521 16.3697 3.83284C16.529 4.31047 16.529 4.78809 16.529 5.42493C16.529 6.38018 16.529 7.33544 16.529 7.97227C16.529 8.76832 16.3697 9.24593 16.3697 9.72355C16.3697 10.2012 16.2106 10.5196 16.0514 10.6788C15.8922 10.9972 15.8921 11.1564 15.7329 11.1564C15.7329 11.1564 15.7329 11.3156 15.5737 11.3156C15.4145 11.3156 15.2553 11.4749 14.9369 11.4749C14.7777 11.4749 14.4593 11.3157 14.3001 11.1564C13.9816 10.9972 13.6632 10.6788 13.504 10.3604C13.1856 10.042 12.8672 9.56435 12.5488 8.92751C12.2303 8.29068 11.7527 7.65385 11.4343 6.6986L11.1159 6.06178C10.9567 5.74336 10.6383 5.10651 10.3198 4.31047C10.0014 3.51443 9.68299 2.8776 9.36458 2.08156C9.20537 1.76314 9.04618 1.60392 8.88697 1.44471H8.72775C8.72775 1.44471 8.56852 1.28552 8.40932 1.28552C8.25011 1.28552 8.09092 1.1263 7.93171 1.1263H2.20019C1.56335 1.1263 1.24494 1.2855 1.08573 1.44471L0.926514 1.60393C0.926514 1.60393 0.926514 1.76313 0.926514 1.92234C0.926514 2.08155 0.926523 2.24075 1.08573 2.55917C1.88178 4.46967 2.83702 6.38018 3.79227 8.29069C4.74753 10.042 5.70279 11.6341 6.33962 12.7485C7.13567 13.863 7.77249 14.9775 8.56853 15.9327C9.36458 16.888 9.84219 17.5248 10.0014 17.8432C10.3198 18.1616 10.479 18.3208 10.6382 18.48L11.1159 18.9577C11.4343 19.2761 11.9119 19.7537 12.5488 20.2313C13.1856 20.709 13.9816 21.1866 14.7777 21.6642C15.5737 22.1418 16.529 22.4603 17.4842 22.7787C18.5987 23.0971 19.5539 23.2563 20.5092 23.0971H22.8973C23.3749 23.0971 23.6934 22.9379 24.0118 22.6195L24.171 22.4602C24.171 22.301 24.3302 22.301 24.3302 22.1418C24.3302 21.9826 24.3302 21.8234 24.3302 21.505C24.3302 20.8682 24.3302 20.3906 24.4894 19.9129C24.6486 19.4353 24.6486 19.1169 24.8078 18.7985C24.967 18.4801 25.1262 18.3208 25.2854 18.1616C25.4447 18.0024 25.6039 17.8432 25.6039 17.8432H25.7631C26.0815 17.684 26.5591 17.8432 26.8775 18.1616C27.3552 18.48 27.8328 18.9577 28.1512 19.4353C28.4696 19.9129 28.9473 20.3905 29.5841 21.0274C30.2209 21.6642 30.6985 22.1418 31.017 22.3011L31.4946 22.6195C31.813 22.7787 32.1314 22.9379 32.6091 23.0971C33.0867 23.2563 33.4051 23.2563 33.7235 23.2563L39.1366 23.0971C39.6142 23.0971 40.0919 22.9379 40.4103 22.7787C40.7287 22.6195 40.8879 22.4603 40.8879 22.1418C40.8879 21.9826 40.8879 21.6642 40.8879 21.505C40.5695 21.1866 40.5695 21.0274 40.5695 20.8682Z" fill="white"/>
</svg>
